<svg xmlns="http://www.w3.org/2000/svg" viewBox="0 0 64 64" role="img" aria-label="Product">
  <defs><linearGradient id="bg" x1="0" y1="0" x2="1" y2="1"><stop stop-color="#198FD0"/><stop offset="1" stop-color="#BFE9FF"/></linearGradient><linearGradient id="shirt" x1="0" y1="0" x2="0" y2="1"><stop stop-color="#2873D8"/><stop offset="1" stop-color="#1B2748"/></linearGradient></defs>
  <rect width="64" height="64" rx="18" fill="url(#bg)"/>
  <circle cx="52" cy="12" r="14" fill="white" opacity=".13"/>
  <path d="M7 64c2-15 11-23 25-23s23 8 25 23H7Z" fill="url(#shirt)"/>
  <path d="M14 34c0-11 7-18 18-18 9 0 15 5 17 14-6-3-11-4-17-4-7 0-13 3-18 8Z" fill="#1D232A"/><path d="M17 25c5-8 14-11 24-6" fill="none" stroke="#1D232A" stroke-width="6" stroke-linecap="round"/>
  <ellipse cx="32" cy="31" rx="14" ry="16" fill="#B9825D"/>
  <path d="M20 28c3-5 7-8 12-8 6 0 10 3 13 8-6-2-11-3-15-2-4 0-7 1-10 2Z" fill="#1D232A" opacity=".95"/>
  <circle cx="27" cy="32" r="1.25" fill="#2B2320"/><circle cx="37" cy="32" r="1.25" fill="#2B2320"/>
  <path d="M28 39c3 2 5 2 8 0" fill="none" stroke="#7C3D3D" stroke-width="1.6" stroke-linecap="round"/>
  <path d="M23 28c2-1 4-1 7 0M34 28c3-1 5-1 7 0" stroke="#1D232A" stroke-width="1.4" stroke-linecap="round" opacity=".75"/>
  <path d="M25 45l7 7 7-7" fill="white" opacity=".9"/>
  <path d="M50 10 55 18 51 27 42 27 38 18 43 10Z" fill="#B7F46A" stroke="white" stroke-width="2"/>
</svg>