<svg xmlns="http://www.w3.org/2000/svg" viewBox="0 0 64 64" role="img" aria-label="Travel">
  <defs><linearGradient id="bg" x1="0" y1="0" x2="1" y2="1"><stop stop-color="#2D9A68"/><stop offset="1" stop-color="#BDEED9"/></linearGradient><linearGradient id="shirt" x1="0" y1="0" x2="0" y2="1"><stop stop-color="#3B8D5A"/><stop offset="1" stop-color="#1B2748"/></linearGradient></defs>
  <rect width="64" height="64" rx="18" fill="url(#bg)"/>
  <circle cx="52" cy="12" r="14" fill="white" opacity=".13"/>
  <path d="M7 64c2-15 11-23 25-23s23 8 25 23H7Z" fill="url(#shirt)"/>
  <path d="M31 18c-10 0-16 7-16 16 5-5 12-8 20-8 4 0 8 1 12 3-2-7-7-11-16-11Z" fill="#5B3524"/>
  <ellipse cx="32" cy="31" rx="14" ry="16" fill="#D9A07E"/>
  <path d="M20 28c3-5 7-8 12-8 6 0 10 3 13 8-6-2-11-3-15-2-4 0-7 1-10 2Z" fill="#5B3524" opacity=".95"/>
  <circle cx="27" cy="32" r="1.25" fill="#2B2320"/><circle cx="37" cy="32" r="1.25" fill="#2B2320"/>
  <path d="M28 39c3 2 5 2 8 0" fill="none" stroke="#7C3D3D" stroke-width="1.6" stroke-linecap="round"/>
  <path d="M23 28c2-1 4-1 7 0M34 28c3-1 5-1 7 0" stroke="#5B3524" stroke-width="1.4" stroke-linecap="round" opacity=".75"/>
  <path d="M25 45l7 7 7-7" fill="white" opacity=".9"/>
  <path d="M50 10 55 18 51 27 42 27 38 18 43 10Z" fill="#B7F46A" stroke="white" stroke-width="2"/>
</svg>